# xmcd CD database file
#
# Track frame offsets:
#	150
#	22565
#	42050
#	64987
#	85200
#	102042
#	125510
#	148867
#	172460
#	194915
#	212260
#
# Disc length: 2906 seconds
#
# Revision: 0
# Processed by: cddbd v1.5.1PL0 Copyright (c) Steve Scherf et al.
# Submitted via: CDex 1.51
#
DISCID=9b0b580b
DTITLE=SUGAR FIELDS - melodious world
DYEAR=1997
DGENRE=Rock
TTITLE0=くじら
TTITLE1=メロディアス･ワールド
TTITLE2=FUN FUN FUN
TTITLE3=アダムとイヴのパーティー(ポニキャニMIX)
TTITLE4=ノスタルジあ
TTITLE5=夕暮れ
TTITLE6=いじめ問題
TTITLE7=ハイ・イロ
TTITLE8=君はTOY
TTITLE9=知りたいこと 知りたくないこと
TTITLE10=超 超ベイベー
EXTD=YEAR: 1997.02/21
EXTT0=
EXTT1=
EXTT2=
EXTT3=
EXTT4=
EXTT5=
EXTT6=
EXTT7=
EXTT8=
EXTT9=
EXTT10=
PLAYORDER=
